#!OML:ASF H:\Dans Jumps\Project 1\Capture day 1\Session 1\subject.ASF
:FULLY-SPECIFIED
:DEGREES
663
root 0.366928 17.7836 2.91012 6.79943 -1.51736 -1.25836
lowerback -3.02312 0.0121908 -0.277171
upperback 2.07337 -0.0192004 1.36175
thorax 3.83097 -0.0362757 1.55761
lowerneck -13.4509 0.178519 -2.02151
upperneck 24.3508 0.618475 0.476907
head 9.9443 0.15323 0.586272
rclavicle -1.68967e-015 3.18055e-015
rhumerus -25.4229 -15.7226 -81.5742
rradius 22.8781
rwrist 35.1871
rhand -21.4552 -28.3636
rfingers 7.12502
rthumb 4.93478 -58.2862
lclavicle -1.68967e-015 3.18055e-015
lhumerus -20.8468 2.62297 88.8332
lradius 14.2676
lwrist -1.29833
lhand -25.331 -6.98702
lfingers 7.12502
lthumb 1.19193 22.9894
rfemur -13.7486 -1.95514 19.5325
rtibia 20.1608
rfoot -11.5756 0.0182989
rtoes 17.8181
lfemur -9.77109 5.89605 -18.0736
ltibia 15.3187
lfoot -8.77537 6.37634
ltoes 2.32875
664
root 0.366882 17.7836 2.91015 6.79619 -1.51027 -1.26047
lowerback -3.03611 0.0132603 -0.279329
upperback 2.07173 -0.0176 1.35863
thorax 3.83658 -0.035511 1.55573
lowerneck -13.4457 0.183527 -2.00043
upperneck 24.3255 0.623067 0.465678
head 9.93426 0.156213 0.579195
rclavicle 5.26779e-015 -9.93923e-015
rhumerus -25.4243 -15.788 -81.557
rradius 22.8445
rwrist 35.2411
rhand -21.4584 -28.3503
rfingers 7.12502
rthumb 4.93175 -58.2729
lclavicle 5.26779e-015 -9.93923e-015
lhumerus -20.8569 2.63776 88.817
lradius 14.2657
lwrist -1.31762
lhand -25.313 -6.95515
lfingers 7.12502
lthumb 1.20925 23.0212
rfemur -13.7398 -1.95367 19.5349
rtibia 20.1528
rfoot -11.5727 0.0097728
rtoes 17.8289
lfemur -9.76716 5.89788 -18.0704
ltibia 15.3157
lfoot -8.77783 6.36697
ltoes 2.34818
665
root 0.366876 17.7836 2.91034 6.79363 -1.5052 -1.26081
lowerback -3.05319 0.0144718 -0.283122
upperback 2.07233 -0.0157673 1.35535
thorax 3.84682 -0.0347041 1.55464
lowerneck -13.4426 0.189485 -1.97618
upperneck 24.2986 0.62958 0.44935
head 9.92408 0.159798 0.570033
rclavicle -3.97569e-015 3.37934e-015
rhumerus -25.4209 -15.8535 -81.5411
rradius 22.8089
rwrist 35.2975
rhand -21.4605 -28.3314
rfingers 7.12502
rthumb 4.92975 -58.2541
lclavicle -3.97569e-015 3.37934e-015
lhumerus -20.8652 2.65939 88.7999
lradius 14.2677
lwrist -1.33322
lhand -25.2928 -6.91811
lfingers 7.12502
lthumb 1.22874 23.0581
rfemur -13.732 -1.95273 19.5351
rtibia 20.145
rfoot -11.5703 0.00260022
rtoes 17.8289
lfemur -9.76303 5.901 -18.0694
ltibia 15.3122
lfoot -8.78095 6.35795
ltoes 2.36361
666
root 0.366939 17.7836 2.91063 6.79191 -1.4998 -1.26107
lowerback -3.0735 0.0151544 -0.286835
upperback 2.07557 -0.0147078 1.35273
thorax 3.86164 -0.0343236 1.55417
lowerneck -13.4498 0.19346 -1.96165
upperneck 24.2758 0.634497 0.43864
head 9.91735 0.162359 0.564348
rclavicle 2.73329e-015 2.18663e-015
rhumerus -25.4129 -15.9028 -81.5304
rradius 22.7779
rwrist 35.3411
rhand -21.4596 -28.3182
rfingers 7.12502
rthumb 4.93061 -58.2408
lclavicle 2.73329e-015 2.18663e-015
lhumerus -20.8687 2.68376 88.7844
lradius 14.2696
lwrist -1.33842
lhand -25.2808 -6.89013
lfingers 7.12502
lthumb 1.24039 23.086
rfemur -13.7253 -1.95591 19.535
rtibia 20.1385
rfoot -11.5688 -0.000641315
rtoes 17.8314
lfemur -9.75875 5.90523 -18.0688
ltibia 15.3078
lfoot -8.78595 6.34695
ltoes 2.38116
